# xmcd
#
# Track frame offsets:
#	150
#	16763
#	33288
#	54447
#	78461
#	87047
#	104157
#	127798
#	145373
#	170047
#
# Disc length: 2417 seconds
#
# Revision: 1
# Processed by: cddbd v1.5.1PL0 Copyright (c) Steve Scherf et al.
# Submitted via: audiograbber 1.83.01
#
DISCID=7a096f0a
DTITLE=Broken Glass - Broken Glass
DYEAR=1975
DGENRE=Blues
TTITLE0=Standing On The Border
TTITLE1=It's Alright
TTITLE2=Keep Your Love
TTITLE3=Can't Keep You Satisfied
TTITLE4=Jersey Lightning
TTITLE5=It's Evil
TTITLE6=Ain't No Magic
TTITLE7=Crying Smiling
TTITLE8=Take The Water
TTITLE9=Broken Glass
EXTD=
EXTT0=
EXTT1=
EXTT2=
EXTT3=
EXTT4=
EXTT5=
EXTT6=
EXTT7=
EXTT8=
EXTT9=
PLAYORDER=
